<?xml version="1.0" encoding="UTF-8" standalone="no"?>
<!-- Created with Inkscape (http://www.inkscape.org/) -->

<svg
   width="512"
   height="512"
   viewBox="0 0 512 512"
   version="1.1"
   id="svg1"
   xml:space="preserve"
   inkscape:version="1.4 (86a8ad7, 2024-10-11)"
   sodipodi:docname="focuspocus.svg"
   xmlns:inkscape="http://www.inkscape.org/namespaces/inkscape"
   xmlns:sodipodi="http://sodipodi.sourceforge.net/DTD/sodipodi-0.dtd"
   xmlns:xlink="http://www.w3.org/1999/xlink"
   xmlns="http://www.w3.org/2000/svg"
   xmlns:svg="http://www.w3.org/2000/svg"><sodipodi:namedview
     id="namedview1"
     pagecolor="#505050"
     bordercolor="#ffffff"
     borderopacity="1"
     inkscape:showpageshadow="0"
     inkscape:pageopacity="0"
     inkscape:pagecheckerboard="1"
     inkscape:deskcolor="#d1d1d1"
     inkscape:document-units="px"
     inkscape:zoom="1.7841797"
     inkscape:cx="325.07936"
     inkscape:cy="234.56158"
     inkscape:window-width="3840"
     inkscape:window-height="2066"
     inkscape:window-x="-11"
     inkscape:window-y="-11"
     inkscape:window-maximized="1"
     inkscape:current-layer="layer6" /><defs
     id="defs1"><linearGradient
       id="linearGradient75"
       inkscape:collect="always"><stop
         style="stop-color:#5599ff;stop-opacity:1;"
         offset="0"
         id="stop76" /><stop
         style="stop-color:#000b13;stop-opacity:1;"
         offset="1"
         id="stop77" /></linearGradient><linearGradient
       id="linearGradient73"
       inkscape:collect="always"><stop
         style="stop-color:#5599ff;stop-opacity:1;"
         offset="0"
         id="stop73" /><stop
         style="stop-color:#255085;stop-opacity:1;"
         offset="0.46016484"
         id="stop75" /><stop
         style="stop-color:#00112b;stop-opacity:1;"
         offset="1"
         id="stop74" /></linearGradient><linearGradient
       id="linearGradient57"
       inkscape:collect="always"><stop
         style="stop-color:#ffffff;stop-opacity:1;"
         offset="0"
         id="stop57" /><stop
         style="stop-color:#000000;stop-opacity:1;"
         offset="0.08104397"
         id="stop59" /><stop
         style="stop-color:#bfbfbf;stop-opacity:1;"
         offset="0.24725278"
         id="stop60" /><stop
         style="stop-color:#000000;stop-opacity:1;"
         offset="0.3392857"
         id="stop61" /><stop
         style="stop-color:#a1a1a1;stop-opacity:1;"
         offset="0.5027473"
         id="stop62" /><stop
         style="stop-color:#000000;stop-opacity:1;"
         offset="0.75412089"
         id="stop69" /><stop
         style="stop-color:#858585;stop-opacity:1;"
         offset="0.86401099"
         id="stop70" /><stop
         style="stop-color:#000000;stop-opacity:1;"
         offset="0.96978021"
         id="stop58" /></linearGradient><linearGradient
       id="linearGradient37"
       inkscape:collect="always"><stop
         style="stop-color:#ffffff;stop-opacity:1;"
         offset="0.40659341"
         id="stop37" /><stop
         style="stop-color:#000000;stop-opacity:0;"
         offset="1"
         id="stop38" /></linearGradient><linearGradient
       id="linearGradient17"
       inkscape:collect="always"><stop
         style="stop-color:#ffffff;stop-opacity:0;"
         offset="0"
         id="stop18" /><stop
         style="stop-color:#000000;stop-opacity:1;"
         offset="0.92307693"
         id="stop19" /></linearGradient><radialGradient
       inkscape:collect="always"
       xlink:href="#linearGradient8"
       id="radialGradient9"
       cx="810.44495"
       cy="812.76733"
       fx="810.44495"
       fy="812.76733"
       r="804.20355"
       gradientTransform="matrix(0.23175881,0,0,0.23151935,68.151774,118.80345)"
       gradientUnits="userSpaceOnUse" /><linearGradient
       id="linearGradient8"
       inkscape:collect="always"><stop
         style="stop-color:#ffffff;stop-opacity:0;"
         offset="0"
         id="stop8" /><stop
         style="stop-color:#acacac;stop-opacity:0.06982543;"
         offset="0.61844486"
         id="stop10" /><stop
         style="stop-color:#000000;stop-opacity:0.63591021;"
         offset="0.89150089"
         id="stop9" /></linearGradient><radialGradient
       inkscape:collect="always"
       xlink:href="#linearGradient17"
       id="radialGradient19"
       cx="287.44818"
       cy="355.32608"
       fx="287.44818"
       fy="355.32608"
       r="183.68282"
       gradientTransform="matrix(1,0,0,0.99891799,0,0.332158)"
       gradientUnits="userSpaceOnUse" /><radialGradient
       inkscape:collect="always"
       xlink:href="#linearGradient37"
       id="radialGradient38"
       cx="172.06787"
       cy="202.89436"
       fx="172.06787"
       fy="202.89436"
       r="48.761906"
       gradientUnits="userSpaceOnUse"
       gradientTransform="translate(-3.9233716,-6.72578)" /><radialGradient
       inkscape:collect="always"
       xlink:href="#linearGradient37"
       id="radialGradient38-4"
       cx="172.06787"
       cy="202.89436"
       fx="172.06787"
       fy="202.89436"
       r="48.761906"
       gradientUnits="userSpaceOnUse"
       gradientTransform="matrix(0.37356323,0,0,0.37356323,146.99544,166.63525)" /><radialGradient
       inkscape:collect="always"
       xlink:href="#linearGradient37"
       id="radialGradient38-4-1"
       cx="172.06787"
       cy="202.89436"
       fx="172.06787"
       fy="202.89436"
       r="48.761906"
       gradientUnits="userSpaceOnUse"
       gradientTransform="matrix(0.23563219,0,0,0.23563219,205.67258,236.28188)" /><linearGradient
       inkscape:collect="always"
       xlink:href="#linearGradient57"
       id="linearGradient58"
       x1="104.82745"
       y1="157.30774"
       x2="406.82227"
       y2="429.2251"
       gradientUnits="userSpaceOnUse" /><linearGradient
       inkscape:collect="always"
       xlink:href="#linearGradient73"
       id="linearGradient74"
       x1="241.7169"
       y1="9.018487"
       x2="404.65961"
       y2="233.28989"
       gradientUnits="userSpaceOnUse"
       gradientTransform="matrix(1.0990171,0,0,1.0990171,-43.795607,-15.520961)" /><linearGradient
       inkscape:collect="always"
       xlink:href="#linearGradient75"
       id="linearGradient77"
       x1="139.79564"
       y1="90.860641"
       x2="442.12039"
       y2="287.19263"
       gradientUnits="userSpaceOnUse"
       gradientTransform="matrix(1.0990171,0,0,1.0990171,-43.795607,-15.520961)" /></defs><g
     inkscape:groupmode="layer"
     id="layer6"
     inkscape:label="Layer 1"><ellipse
       style="opacity:1;fill:#00060f;fill-opacity:1;stroke:#000000;stroke-width:10.9984;stroke-linecap:square;stroke-miterlimit:10;stroke-dasharray:none;stroke-opacity:1;paint-order:stroke fill markers"
       id="path71"
       transform="matrix(0.95393702,0.30000692,-0.3516038,0.9361489,0,0)"
       ry="74.085548"
       rx="203.8611"
       cy="118.41846"
       cx="331.25235" /><path
       style="fill:url(#linearGradient74);fill-opacity:1;stroke:#000000;stroke-width:5.49509;stroke-linecap:butt;stroke-linejoin:miter;stroke-dasharray:none;stroke-opacity:1"
       d="m 163.17331,126.77016 c 0,0 75.14943,-124.4277334 192.18543,-109.02826 117.03599,15.399472 105.30143,100.30419 105.30143,100.30419 0,0 -1.11986,21.60944 -35.69581,-9.13931 0,0 -47.43038,-41.886565 -41.88658,-0.61599 5.54382,41.2706 41.88658,108.4123 41.88658,108.4123 z"
       id="path73"
       sodipodi:nodetypes="csccscc" /></g><g
     id="g71"
     inkscape:label="Lins"
     transform="matrix(0.86255337,0,0,0.86255337,16.697678,71.410162)"><g
       inkscape:groupmode="layer"
       id="layer4"
       inkscape:label="bas 1"><circle
         style="display:inline;fill:url(#linearGradient58);fill-opacity:1;stroke:#000000;stroke-width:12.7414;stroke-linecap:square;stroke-miterlimit:10;stroke-dasharray:none;paint-order:stroke fill markers"
         id="path10-6"
         cx="255.82483"
         cy="293.26639"
         r="203.18703"
         inkscape:label="path10-6" /></g><circle
       style="display:inline;opacity:1;fill:#000000;fill-opacity:1;stroke:#000000;stroke-width:0;stroke-linecap:square;stroke-miterlimit:10;stroke-dasharray:none;paint-order:stroke fill markers"
       id="path10"
       cx="255.82483"
       cy="306.15747"
       r="188.05402"
       transform="translate(0,-12.891078)" /><g
       inkscape:groupmode="layer"
       id="layer3"
       inkscape:label="bas"
       style="display:inline"
       transform="translate(0,-12.891078)"
       sodipodi:insensitive="true" /><path
       d="m 1111.4918,1167.7117 c 12.699,-133.3132 10.5593,-258.6179 8.2264,-320.4229 l -143.7966,249.063 0.2117,0.3142 c -0.0488,0.033 -0.2675,0.1794 -0.64,0.4279 l -0.493,0.8541 h -0.7924 c -17.7061,11.7334 -154.6073,101.3115 -316.7206,175.4233 -101.9248,46.5959 -193.8531,78.1162 -273.2319,93.6855 -51.2694,10.0562 -97.4708,13.4342 -138.3306,10.1848 144.3978,142.1158 342.5173,229.8084 561.1253,229.8084 60.0491,0 118.5476,-6.6301 174.8169,-19.1731 29.5822,-34.9309 54.8084,-82.5996 75.3447,-142.5306 25.5803,-74.6485 43.8427,-168.0582 54.2801,-277.6346 z"
       id="path1"
       style="display:inline;fill:#00b500;fill-opacity:1;stroke:none;stroke-width:0;stroke-dasharray:none"
       transform="matrix(0.22851572,0,0,0.22851572,71.418037,109.50986)" /><path
       d="m 639.0999,516.152 h 0.7925 c 17.7064,-11.7336 154.6073,-101.3115 316.7205,-175.4233 101.9247,-46.5958 193.853,-78.1162 273.2318,-93.6854 51.2694,-10.0563 97.4708,-13.4343 138.3307,-10.1849 C 1223.7776,94.7427 1025.6581,7.0501001 807.0501,7.0501001 c -60.0491,0 -118.5476,6.6300999 -174.817,19.1729999 -29.582,34.9311 -54.8083,82.5997 -75.3447,142.5306 -25.5801,74.6484 -43.8427,168.0583 -54.2801,277.6346 -12.699,133.3133 -10.5593,258.618 -8.2264,320.423 l 143.7965,-249.063 -0.2115,-0.3142 c 0.0487,-0.0328 0.2673,-0.1794 0.6399,-0.4278 z"
       id="path2"
       style="display:inline;fill:#ff2600;fill-opacity:1;stroke:none;stroke-width:0;stroke-dasharray:none"
       transform="matrix(0.22851572,0,0,0.22851572,71.418037,109.50986)" /><path
       d="m 1234.75,271.2556 c -77.4375,15.1711 -167.4641,46.0602 -267.5786,91.8093 -121.8022,55.659 -229.2493,120.1644 -281.6075,153.0872 h 287.593 l 0.1664,-0.3403 c 0.0529,0.0258 0.2892,0.1418 0.6906,0.3403 h 0.9865 l 0.396,0.6862 c 19.0148,9.4673 165.0419,83.2381 310.2812,186.5763 91.3157,64.9715 164.5774,128.8236 217.75,189.783 34.4314,39.4731 60.5011,77.8907 78.1187,114.9889 16.6426,-64.2667 25.5039,-131.6661 25.5039,-201.1363 0,-209.0386 -80.1853,-399.3416 -211.4622,-541.8555 -44.9881,-8.0972 -98.7911,-6.0956 -160.838,6.0609 z"
       id="path3"
       style="display:inline;fill:#f69f23;fill-opacity:1;stroke:none;stroke-width:0;stroke-dasharray:none"
       transform="matrix(0.22851572,0,0,0.22851572,71.418037,109.50986)" /><path
       d="M 1484.9116,909.5518 C 1433.0543,850.0745 1361.2903,787.5538 1271.613,723.7265 1162.51,646.0722 1052.9231,585.2729 998.232,556.3908 l 143.7966,249.063 0.3779,-0.0261 c 0,0.0587 0.022,0.3212 0.051,0.7682 l 0.493,0.8542 -0.3961,0.6861 c 1.3085,21.2008 10.4347,184.5495 -6.4392,361.9996 -10.6091,111.5674 -29.2759,206.9398 -55.4819,283.4685 -16.969,49.5552 -37.2048,91.3409 -60.5239,125.1475 261.8224,-72.1638 469.8517,-274.058 550.5938,-532.208 -15.4537,-43.1066 -44.1329,-88.8134 -85.7911,-136.592 z"
       id="path4"
       style="display:inline;fill:#feef00;fill-opacity:1;stroke:none;stroke-width:0;stroke-dasharray:none"
       transform="matrix(0.22851572,0,0,0.22851572,71.418037,109.50986)" /><path
       d="m 379.3502,1342.8445 c 77.4375,-15.1711 167.4641,-46.0602 267.5786,-91.8092 121.8022,-55.6591 229.2494,-120.1644 281.6077,-153.0873 H 640.9433 l -0.1664,0.3403 c -0.0529,-0.026 -0.2892,-0.1418 -0.6906,-0.3403 h -0.9865 l -0.396,-0.6862 C 619.689,1087.7945 473.6618,1014.0237 328.4225,910.6856 237.1069,845.7141 163.8453,781.862 110.6726,720.9026 76.2411,681.4296 50.1714,643.012 32.5538,605.9138 15.9113,670.1805 7.0501,737.58 7.0501,807.0501 c 0,209.0385 80.1852,399.3415 211.4622,541.8554 44.9881,8.0972 98.791,6.0955 160.8379,-6.061 z"
       id="path5"
       style="display:inline;fill:#006fc4;fill-opacity:1;stroke:none;stroke-width:0;stroke-dasharray:none"
       transform="matrix(0.22851572,0,0,0.22851572,71.418037,109.50986)" /><path
       d="m 129.1885,704.5483 c 51.8573,59.4772 123.6213,121.998 213.2985,185.8253 109.1033,77.6542 218.6901,138.4536 273.3813,167.3356 l -143.7968,-249.0628 -0.3779,0.026 c -0.004,-0.0586 -0.0217,-0.3212 -0.0505,-0.7681 l -0.4931,-0.8542 0.3961,-0.6862 c -1.3083,-21.2006 -10.4347,-184.5494 6.4392,-361.9998 10.6092,-111.5673 29.2759,-206.9398 55.482,-283.4684 16.969,-49.5551 37.2048,-91.341 60.5239,-125.1474 -261.8224,72.1639 -469.8518,274.058 -550.5938,532.2081 15.4537,43.1066 44.1329,88.8133 85.7911,136.5919 z"
       id="path6"
       style="display:inline;fill:#7421b0;fill-opacity:1;stroke:none;stroke-width:0;stroke-dasharray:none"
       transform="matrix(0.22851572,0,0,0.22851572,71.418037,109.50986)" /><g
       id="g6"
       transform="matrix(0.22851572,0,0,0.22851572,71.418037,109.50986)"
       style="display:inline;stroke:none;stroke-width:0;stroke-dasharray:none">
	
	
	
	
	
	
</g><g
       inkscape:label="Lager 1"
       inkscape:groupmode="layer"
       id="layer1"
       style="display:inline"
       transform="translate(0,-12.891078)"
       sodipodi:insensitive="true" /><ellipse
       style="display:inline;fill:url(#radialGradient9);stroke:none;stroke-width:5.39389;stroke-linecap:square;stroke-miterlimit:10;stroke-dasharray:32.3631, 5.39389;paint-order:stroke fill markers"
       id="path7"
       cx="255.97954"
       cy="306.98386"
       rx="183.68282"
       ry="183.48407"
       transform="translate(0,-12.891078)" /><g
       inkscape:groupmode="layer"
       id="layer2"
       inkscape:label="Lager 2"
       style="display:inline"
       transform="translate(0,-12.891078)"
       sodipodi:insensitive="true" /><ellipse
       style="display:inline;opacity:0.65;fill:url(#radialGradient19);stroke:none;stroke-width:5.39389;stroke-linecap:square;stroke-miterlimit:10;stroke-dasharray:32.3631, 5.39389;paint-order:stroke fill markers"
       id="ellipse10"
       cx="255.97954"
       cy="306.98386"
       rx="183.68282"
       ry="183.48407"
       transform="translate(0,-12.891078)" /><circle
       style="display:inline;opacity:1;fill:url(#radialGradient38);stroke:none;stroke-width:0;stroke-linecap:square;stroke-miterlimit:10;stroke-dasharray:none;stroke-opacity:1;paint-order:stroke fill markers"
       id="path37"
       cx="168.1445"
       cy="196.16858"
       r="48.761906"
       transform="translate(0,-12.891078)" /><circle
       style="display:inline;opacity:1;fill:url(#radialGradient38-4);stroke:none;stroke-width:0;stroke-linecap:square;stroke-miterlimit:10;stroke-dasharray:none;stroke-opacity:1;paint-order:stroke fill markers"
       id="path37-3"
       cx="211.27365"
       cy="242.42911"
       r="18.215654"
       transform="translate(0,-12.891078)" /><circle
       style="display:inline;opacity:1;fill:url(#radialGradient38-4-1);stroke:none;stroke-width:0;stroke-linecap:square;stroke-miterlimit:10;stroke-dasharray:none;stroke-opacity:1;paint-order:stroke fill markers"
       id="path37-3-7"
       cx="246.21727"
       cy="284.0903"
       r="11.489875"
       transform="translate(0,-12.891078)" /><g
       inkscape:groupmode="layer"
       id="g10"
       inkscape:label="Lager 2-kopia"
       style="display:inline;opacity:0.65;fill:#ffffff"
       transform="translate(0,-12.891078)"
       sodipodi:insensitive="true" /></g><g
     inkscape:groupmode="layer"
     id="layer5"
     inkscape:label="Hatt lager 1"
     style="fill:#ffffff;stroke:#000000"><path
       style="fill:url(#linearGradient77);stroke:#000000;stroke-width:5.49509;stroke-linecap:round;stroke-linejoin:round;stroke-dasharray:none;stroke-opacity:1"
       d="m 471.16277,268.44532 c 2.79172,-34.72496 -33.81793,-57.60939 -65.01574,-82.34229 -73.22167,-58.04847 -153.75812,-70.84417 -244.20637,-70.06895 -68.084861,0.58356 -81.30852,25.51957 -81.30852,25.51957 0,0 24.54075,-9.09706 78.89857,3.46611 30.75836,7.10886 73.57624,31.62179 120.6786,42.73232 185.40965,43.7345 190.95346,80.69324 190.95346,80.69324 z"
       id="path72"
       sodipodi:nodetypes="csscssc" /></g></svg>
